<?xml version="1.0" encoding="utf-8"?>
<!-- Generator: Adobe Illustrator 19.2.1, SVG Export Plug-In . SVG Version: 6.00 Build 0)  -->
<svg version="1.1" xmlns="http://www.w3.org/2000/svg" xmlns:xlink="http://www.w3.org/1999/xlink" x="0px" y="0px"
	 viewBox="0 0 194.6 194.6" style="enable-background:new 0 0 194.6 194.6;" xml:space="preserve">
<style type="text/css">
	.st0{fill:#003366;}
	.st1{fill:none;stroke:#211915;stroke-miterlimit:10;}
</style>
<g id="Camada_1">
	<path class="st0" d="M121.4,132.7c2.3,0.5,5.1,0.7,11.4,0.7c9.2,0,12.8-0.5,16.7-2.5l1.6-0.8v-7.1c0-7.3-0.1-8-0.9-10l0,0
		c-1.3-3.3-4-6.8-6.7-8.6l-4.1-2.6l3.5-3.5c2.7-2.6,3.8-5.5,3.8-9.8c0-5.7-2.4-9.8-7.3-12.4c-2.1-1.1-2.8-1.4-5.6-1.5
		c-2-0.1-4,0-4.6,0.2c-1.6,0.5-2.7,0.5-3.9-0.8c-0.3-0.4-1.2-1.1-1.9-1.5l-3-1.9l2.8-3.1c2.1-2.4,3-4.6,3-8c0-3.6-0.8-5.6-3.2-8.3
		c-2.2-2.4-4.8-3.5-8.5-3.5c-3.6,0-6,1-8.4,3.3c-4.5,4.4-4.6,12.1-0.2,16.6l2.9,2.9l-2.9,1.6c-2.7,1.5-5.3,4.5-6.5,7.6l-0.8,1.9
		l-2.8,0l-0.7-1.9c-1.2-3.1-3.8-6.2-6.5-7.6l-2.9-1.7l2.9-2.9c4.4-4.5,4.3-12.2-0.2-16.6c-2.4-2.4-4.8-3.3-8.4-3.3
		c-3.7,0-6.3,1-8.5,3.5c-2.4,2.6-3.2,4.7-3.2,8.3c0,3.5,0.8,5.7,3,8l2.8,3l-3,1.9c-0.7,0.4-1.6,1.1-1.9,1.5
		c-1.2,1.3-2.2,1.3-3.9,0.8c-0.6-0.2-2.6-0.3-4.6-0.2c-2.8,0.1-3.5,0.4-5.6,1.5c-4.9,2.6-7.3,6.7-7.3,12.4c0,4.3,1.1,7.2,3.8,9.8
		l3.5,3.5l-4.1,2.6c-2.7,1.8-5.4,5.3-6.7,8.6c-0.8,2-0.9,2.6-0.9,10v7.1l1.6,0.8c3.9,2,7.5,2.5,16.7,2.5c6.3,0,9.1-0.2,11.4-0.7
		c3.5-0.8,3.7-0.8,3.9-0.8c1.6,0,1.8,1,1.9,7l0.1,4.7l1.6,0.8c3.4,1.6,8.2,2.4,15.5,2.5l1.2,0c7.9,0,13-0.8,16.5-2.5l1.6-0.8
		l0.1-4.7c0.1-6,0.4-7,1.9-7C117.8,131.9,117.9,131.9,121.4,132.7z M128.6,76.6L128.6,76.6c2.5-0.9,5.9-0.9,8.1-0.1
		c4.4,1.6,7.6,5.6,8.4,10.2c0.7,4.4-0.9,8.6-4.3,11.3c-2.3,1.9-5.1,2.8-7.9,2.8c-1.8,0-3.7-0.4-5.4-1.2c-4.3-2.1-7-6.4-7-11.2
		C120.3,83.3,123.8,78.3,128.6,76.6z M104.7,62c-1-3.9,0.4-9.1,5.5-11.8c2.2-1.2,6.4-1.2,8.9,0.1c3.4,1.8,5.5,5,5.7,8.6
		c0.2,3.7-1.7,7.2-5,9.2c-1.8,1.1-3,1.5-5.1,1.5C109.8,69.7,105.8,66.7,104.7,62z M97.3,85.3L97.3,85.3L97.3,85.3L97.3,85.3z
		 M95.9,89.5v-0.2l1.5,0c1.7,0,3.4,0.4,4.9,1.2c4.5,2.1,7.2,6.2,7.2,11.1c0,3.3-1.1,6.1-3.5,8.6c-2.3,2.5-4.5,3.6-7.5,3.9v0.1
		l-1.5,0c-3.6,0-6.1-1.2-8.7-4c-2.4-2.4-3.5-5.2-3.4-8.6c0-4.9,2.8-9.1,7.2-11.1C93.4,90,94.7,89.6,95.9,89.5z M69.8,59
		c0.2-3.7,2.3-6.9,5.7-8.6l0,0c2.5-1.2,6.7-1.3,8.9-0.1c5.1,2.7,6.4,7.9,5.5,11.8c-1.1,4.6-5.1,7.7-10,7.7c-2.1,0-3.3-0.3-5.1-1.5
		C71.5,66.1,69.7,62.7,69.8,59z M53.9,98.1c-3.4-2.7-5-6.9-4.3-11.3c0.7-4.6,3.9-8.6,8.4-10.2c2.2-0.8,5.5-0.8,8,0.1
		c4.8,1.7,8.3,6.7,8.3,11.8c0,4.8-2.7,9.1-7,11.2c-1.7,0.8-3.6,1.2-5.4,1.2C59,100.9,56.2,99.9,53.9,98.1z M78.8,123.2L78.8,123.2
		l-0.2,6.3l-3.6,1.1c-1.7,0.5-5.4,1.1-8,1.4c-1.6,0.2-3.3,0.2-5.1,0.2c-5,0-10.2-0.6-13.5-1.6l-3.6-1.1v-7.1c0-5.7,0.1-6.6,1.3-9.2
		c2.5-5.4,7.3-9.2,12.9-10.3c2.6-0.5,3-0.5,3.4-0.4c8,1.2,13.2,5.3,15.4,12.2C78.7,117.1,78.9,118.5,78.8,123.2z M72.4,104.4
		L72.4,104.4l-3.8-2.5l3.2-3.4c1-1.1,2.3-3,2.9-4.2c0.9-1.9,1-2.6,1-5.8c0-3.1-0.1-3.9-1-5.7c-0.6-1.2-1.7-3-2.5-3.9L72,78.7
		c-1-1.1-1.6-1.9-1.4-3c0.2-1.2,1.3-1.7,3.6-2.8l0.2-0.1c3-1.4,7.5-1.6,10.8-0.4c4.5,1.6,8.8,7,9.6,12l0.5,3l-3.5,1.5
		c-4.6,2.1-7.8,6.5-8.3,11.5c-0.5,4.3,1.7,9.9,4.8,12.2l3.3,2.5l-3.8,2.1c-0.9,0.5-2.4,1.7-3.2,2.4l-4.1,4v-5.2
		C80.3,113.4,76.8,107.3,72.4,104.4z M114.3,142.6l-3,1c-3.6,1.1-6.9,1.6-12.6,1.6v0l-1.5,0.1c-6.5,0-10-0.4-13.8-1.6l-3.1-1v-5.9
		c0-3,0.3-6.1,0.7-7.8c1.5-5.8,5.9-10.3,11.6-12.1c1.2-0.4,2.3-0.7,3.3-0.8v-0.1l1.5,0c1.4,0,2.8,0.3,4.6,0.9
		c5.7,1.8,10.1,6.3,11.6,12.1c0.4,1.7,0.7,4.8,0.7,7.8V142.6z M114.3,118.3v5.2l-4.1-4c-0.8-0.8-2.3-1.9-3.2-2.4l-3.9-2.2l3.3-2.5
		c3.1-2.3,5.2-7.9,4.8-12.2c-0.5-5-3.7-9.4-8.3-11.5l-3.5-1.5l0.5-3c0.8-5.1,5.1-10.5,9.6-12c3.3-1.2,7.8-1,10.8,0.4l0.2,0.1
		c2.3,1.1,3.3,1.6,3.6,2.8c0.2,1.1-0.5,1.9-1.4,3l-0.1,0.1c-0.9,0.9-2,2.7-2.5,3.9c-0.9,1.8-1,2.6-1,5.7c0,3.3,0.2,4,1,5.7
		c0.6,1.3,1.9,3.2,2.9,4.2l3.2,3.4l-3.8,2.5C117.8,107.2,114.3,113.4,114.3,118.3z M115.9,129.4l-0.2-6.3c-0.1-4.6,0.1-6.1,0.9-8.6
		c2.3-6.9,7.4-10.9,15.4-12.1c0.4-0.1,0.8,0,3.4,0.4c5.6,1,10.4,4.8,12.9,10.3c1.2,2.6,1.3,3.5,1.3,9.2v7.1l-3.6,1.1
		c-3.3,1-8.5,1.6-13.5,1.6c-1.8,0-3.5-0.1-5.1-0.2c-2.7-0.3-6.4-0.9-8-1.4L115.9,129.4z"/>
</g>
<g id="Camada_2">
	<path class="st1" d="M79.3-8.7"/>
	<path class="st1" d="M42.3,92"/>
</g>
</svg>
