<?xml version="1.0" encoding="utf-8"?>
<!-- Generator: Adobe Illustrator 19.2.1, SVG Export Plug-In . SVG Version: 6.00 Build 0)  -->
<svg version="1.1" baseProfile="tiny" id="Camada_1"
	 xmlns="http://www.w3.org/2000/svg" xmlns:xlink="http://www.w3.org/1999/xlink" x="0px" y="0px" viewBox="0 0 194.6 194.6"
	 xml:space="preserve">
<g>
	<g>
		<path fill="none" stroke="#003366" stroke-width="2" stroke-miterlimit="10" d="M38.1,42.9c0-6.4,4.5-10.9,10.6-10.9
			c6.3,0,10.5,4.5,10.6,10.9c0,6.2-4.2,10.9-10.6,10.9C42.4,53.8,38.1,49.1,38.1,42.9z"/>
		<line fill="none" stroke="#003366" stroke-width="2" stroke-miterlimit="10" x1="69.7" y1="42.9" x2="151.7" y2="42.9"/>
	</g>
	<g>
		<path fill="#82D700" stroke="#003366" stroke-width="2" stroke-miterlimit="10" d="M38.1,79.3c0-6.4,4.5-10.9,10.6-10.9
			c6.3,0,10.5,4.5,10.6,10.9c0,6.2-4.2,10.9-10.6,10.9C42.4,90.2,38.1,85.4,38.1,79.3z"/>
		<line fill="none" stroke="#003366" stroke-width="2" stroke-miterlimit="10" x1="69.7" y1="79.3" x2="151.7" y2="79.3"/>
	</g>
	<g>
		<path fill="none" stroke="#003366" stroke-width="2" stroke-miterlimit="10" d="M38.1,115.7c0-6.4,4.5-10.9,10.6-10.9
			c6.3,0,10.5,4.5,10.6,10.9c0,6.2-4.2,10.9-10.6,10.9C42.4,126.6,38.1,121.8,38.1,115.7z"/>
		<line fill="none" stroke="#003366" stroke-width="2" stroke-miterlimit="10" x1="69.7" y1="115.7" x2="151.7" y2="115.7"/>
	</g>
	<g>
		<path fill="none" stroke="#003366" stroke-width="2" stroke-miterlimit="10" d="M38.1,152.1c0-6.4,4.5-10.9,10.6-10.9
			c6.3,0,10.5,4.5,10.6,10.9c0,6.2-4.2,10.9-10.6,10.9C42.4,163,38.1,158.2,38.1,152.1z"/>
		<line fill="none" stroke="#003366" stroke-width="2" stroke-miterlimit="10" x1="69.7" y1="152.1" x2="151.7" y2="152.1"/>
	</g>
</g>
</svg>
