<?xml version="1.0" encoding="utf-8"?>
<!-- Generator: Adobe Illustrator 19.2.1, SVG Export Plug-In . SVG Version: 6.00 Build 0)  -->
<svg version="1.1" id="Camada_1" xmlns="http://www.w3.org/2000/svg" xmlns:xlink="http://www.w3.org/1999/xlink" x="0px" y="0px"
	 viewBox="0 0 194.6 194.6" style="enable-background:new 0 0 194.6 194.6;" xml:space="preserve">
<style type="text/css">
	.st0{fill:#003366;stroke:#FFFFFF;stroke-width:2;stroke-miterlimit:10;}
</style>
<g>
	<path class="st0" d="M57.4,105.3c-0.9-0.1-1.6-0.1-2.4-0.2c-3.5-0.4-5.7-3.8-4.4-7.1c0.4-1,1-2.1,1.8-2.9c3-3,4.6-6.7,5.6-10.7
		c1-4.2,1.6-8.5,2.4-12.7c1.9-10.5,7.6-18.3,16.8-23.6c7.9-4.6,16.5-6.3,25.5-6.1c9,0.2,17.5,2.4,25.4,7c5.7,3.4,10.4,7.8,13.2,14
		c1.2,2.7,1.9,5.6,2.2,8.6c0.4,4,0.8,7.9,1,11.9c0.2,4.2-0.8,8.2-2.8,11.8c-1.8,3.3-3.6,6.5-5.5,9.7c-3.7,6.5-6.6,13.2-7.7,20.7
		c-0.6,4.1-0.7,8.2-0.2,12.3c0.3,2.1-0.2,2.9-2.2,3.5c-12.3,3.6-24.6,7.3-36.8,10.9c-2.1,0.6-3.2,0.1-3.7-2
		c-0.4-1.7-0.7-3.5-0.9-5.3c-0.1-1,0-2.1,0-3.2c0-2.7-0.8-5-2.6-6.9c-0.7-0.7-1.4-1.4-1.9-2.2c-0.8-1-1.8-1.3-3-1.2
		c-1.9,0.2-3.8,0.5-5.7,0.5c-3,0-5.7-1.1-7.9-3.1c-1.9-1.8-3-3.9-3.1-6.6c0-0.6,0-1.2,0-1.8c0-1.2-0.1-2.3-1-3.2
		c-1-1.1-1-2.5-0.8-3.8c0.1-0.3,0.1-0.8-0.1-1c-1.5-1.5-1.8-3.3-1.3-5.3C57.2,106.7,57.3,106,57.4,105.3z M89.4,147.4
		c0.3-0.1,0.5-0.1,0.7-0.1c10.9-3.2,21.8-6.4,32.6-9.6c0.7-0.2,0.8-0.6,0.7-1.2c-0.4-4.3-0.1-8.5,0.6-12.7
		c1.3-7.5,4.1-14.3,7.9-20.8c1.9-3.2,3.7-6.5,5.5-9.8c1.3-2.4,2.2-5,2.3-7.7c0.3-5.8-0.5-11.4-1.7-17c-1.5-6.8-5.7-11.7-11.6-15.1
		c-13.4-7.7-27.6-8.6-42.2-3.6c-7.3,2.5-13,7.2-16.6,14.1c-2.1,4.1-2.9,8.6-3.4,13.1c-0.7,5.7-2.1,11.3-4.9,16.4
		c-1,1.9-2.6,3.5-3.9,5.3c-0.3,0.4-0.4,0.9-0.6,1.3c0.5,0.1,0.9,0.4,1.4,0.4c1.4,0.2,2.8,0.2,4.1,0.4c1.6,0.3,2.3,1.4,2,3
		c-0.3,1.6-0.6,3.2-0.9,4.9c-0.1,0.7-0.1,1,0.7,1.2c1.8,0.5,2.3,2,1.4,3.6c-0.2,0.3-0.4,0.5-0.5,0.9c-0.1,0.3-0.1,0.7,0.1,0.8
		c1.2,1.1,1.5,2.5,1.6,4.1c0,1.1,0.1,2.3,0.1,3.4c0.1,2.3,1.4,4.1,3.6,4.6c1.4,0.3,2.9,0.3,4.3,0.3c1.4,0,2.8-0.4,4.3-0.4
		c1.9-0.1,3.7,0.1,5.1,1.5c4.2,4,7.4,8.5,7,14.8C89.1,144.6,89.3,145.9,89.4,147.4z"/>
	<path class="st0" d="M129.5,78.2c-0.1,0.9-0.1,1.9-0.3,2.9c-0.2,1.4-0.9,2.2-2.3,2.4c-1.1,0.1-2.1,0.3-3.2,0.4
		c-1,0.2-1.7,1.9-1.1,2.7c0.6,0.8,1.3,1.6,1.9,2.4c0.9,1.2,1,2.2,0,3.4c-1.3,1.4-2.6,2.8-4,4c-1.1,1-2.1,0.9-3.3,0
		c-0.8-0.6-1.5-1.2-2.3-1.7c-1.2-0.9-2.8-0.2-3,1.3c-0.1,0.9-0.2,1.8-0.3,2.7c-0.2,1.5-0.9,2.3-2.4,2.4c-1.9,0.1-3.9,0.1-5.8,0
		c-1.4-0.1-2.1-0.9-2.3-2.3c-0.1-1.1-0.3-2.1-0.4-3.2c-0.2-1-1.9-1.7-2.7-1.1c-0.9,0.6-1.7,1.4-2.6,2c-1.1,0.8-2.1,0.9-3.1-0.1
		c-1.5-1.3-2.9-2.7-4.2-4.2c-1-1.1-0.9-2,0-3.2c0.6-0.9,1.3-1.7,1.9-2.5c0.6-0.8-0.1-2.6-1.1-2.7c-1-0.2-2-0.3-3-0.4
		c-1.5-0.2-2.3-0.9-2.4-2.4c-0.1-1.9-0.1-3.9,0-5.8c0.1-1.4,0.8-2,2.1-2.2c1-0.2,2-0.2,2.9-0.4c1.5-0.2,2.2-1.9,1.3-3.1
		c-0.6-0.8-1.3-1.6-1.9-2.4c-0.7-1-0.8-2,0-2.9c1.4-1.5,2.8-3,4.3-4.3c1-0.9,2-0.8,3.1,0c0.7,0.5,1.4,1,2.1,1.6
		c0.7,0.6,1.3,0.7,2.2,0.3c0.8-0.3,1.1-0.7,1.1-1.5c0.1-0.9,0.2-1.9,0.3-2.8c0.2-1.4,0.9-2.1,2.3-2.2c1.9-0.1,3.8-0.1,5.7,0
		c1.5,0.1,2.2,0.8,2.4,2.3c0.1,0.9,0.2,1.9,0.4,2.8c0.2,1.4,1.9,2.1,3,1.2c0.8-0.6,1.6-1.3,2.4-1.9c1.1-0.8,2.2-0.8,3.1,0.1
		c1.4,1.3,2.8,2.7,4.1,4.1c1,1.1,0.9,2.1,0,3.3c-0.5,0.7-1.1,1.5-1.7,2.2c-0.5,0.6-0.6,1.1-0.3,1.9c0.3,0.9,0.8,1.2,1.7,1.3
		c0.9,0.1,1.8,0.2,2.7,0.3c1.3,0.2,2,0.9,2.1,2.3C129.3,76.3,129.4,77.2,129.5,78.2z M118.7,91.8c1.3-0.9,1.3-0.9,0.4-2.1
		c-0.5-0.6-1-1.3-1.5-1.9c-0.6-0.8-0.6-1.7-0.2-2.7c0.6-1.2,1.1-2.5,1.6-3.7c0.4-1,1-1.7,2.1-1.8c1-0.1,2-0.2,2.9-0.4
		c0.3-0.1,0.6-0.5,0.7-0.8c0.1-0.5-0.1-0.9-0.7-0.9c-0.9-0.1-1.9-0.3-2.8-0.4c-1.3-0.1-1.9-0.9-2.3-2c-0.3-1.1-0.7-2.2-1.3-3.1
		c-0.7-1.3-0.6-2.3,0.3-3.4c0.7-0.8,1.3-1.7,1.9-2.5c-0.6-1.1-1.2-1.3-2-0.5c-0.6,0.6-1.3,1-2,1.6c-0.8,0.6-1.7,0.6-2.7,0.2
		c-1.2-0.6-2.5-1.1-3.7-1.6c-1-0.4-1.6-1-1.8-2c-0.1-1-0.3-2-0.4-2.9c-0.1-0.6-0.3-0.9-0.9-0.9c-0.6,0-0.9,0.2-1,0.9
		c-0.1,0.9-0.3,1.9-0.4,2.8c-0.1,1.1-0.8,1.8-1.8,2.1c-0.7,0.2-1.5,0.3-2.1,0.7c-3.4,2-3.5,1.2-6.3-0.9c-1.2-0.9-1.2-0.9-2.1,0.4
		c0.7,0.9,1.4,1.9,2.2,2.9c0.6,0.8,0.7,1.7,0.2,2.7c-0.6,1.2-1.1,2.5-1.6,3.7c-0.4,1-1,1.7-2.1,1.8c-1,0.1-2,0.3-2.9,0.4
		c-0.7,0.1-0.9,0.4-0.7,1c0.1,0.3,0.4,0.7,0.7,0.8c0.9,0.2,1.9,0.3,2.8,0.4c1.3,0.1,1.9,0.9,2.3,2c0.4,1.1,0.8,2.2,1.3,3.2
		c0.6,1.2,0.6,2.2-0.2,3.2c-0.7,0.9-1.4,1.8-2.1,2.7c0.4,0.5,0.7,0.8,1,1.2c1.1-0.8,2-1.5,2.9-2.2c0.9-0.8,1.9-0.8,3-0.2
		c1.2,0.6,2.4,1.1,3.6,1.5c1,0.4,1.6,1,1.7,2c0.1,1,0.2,2,0.5,3c0.1,0.3,0.6,0.6,0.9,0.6c0.3,0,0.8-0.4,0.9-0.6
		c0.2-1,0.3-1.9,0.4-2.9c0.1-1.2,0.8-1.9,2-2.2c1.1-0.4,2.3-0.8,3.3-1.4c1.3-0.6,2.2-0.6,3.3,0.3C117.1,90.5,117.9,91.2,118.7,91.8z
		"/>
	<path class="st0" d="M116.3,78.5c-0.2,5.3-5.2,10-10.3,9.8c-5.3-0.2-10-5.2-9.8-10.3c0.2-5.3,5.2-10,10.3-9.7
		C111.9,68.5,116.5,73.4,116.3,78.5z M106.4,72.9c-3.4,0-5.4,2-5.4,5.4c0,3.2,2,5.3,5.3,5.3c3.3,0,5.4-2,5.4-5.3
		C111.7,75,109.6,72.9,106.4,72.9z"/>
</g>
</svg>
