<?xml version="1.0" encoding="utf-8"?>
<!-- Generator: Adobe Illustrator 19.2.1, SVG Export Plug-In . SVG Version: 6.00 Build 0)  -->
<svg version="1.1" id="Camada_1" xmlns="http://www.w3.org/2000/svg" xmlns:xlink="http://www.w3.org/1999/xlink" x="0px" y="0px"
	 viewBox="0 0 194.6 194.6" style="enable-background:new 0 0 194.6 194.6;" xml:space="preserve">
<style type="text/css">
	.st0{fill:none;stroke:#003366;stroke-width:2;}
</style>
<g>
	<path class="st0" d="M55.3,83.6c-7.1,0-14.3,0-21.4,0c-4.7,0-7.3-2.5-7.3-7.3c0-9.7,0-19.4,0-29.1c0-4.1,2.7-6.8,6.9-6.9
		c14.6,0,29.3,0,43.9,0c4.4,0,7,2.6,7,7c0,9.9,0,19.7,0,29.6c0,4.2-2.7,6.8-6.9,6.8C70.1,83.6,62.7,83.6,55.3,83.6
		C55.3,83.6,55.3,83.6,55.3,83.6z"/>
	<path class="st0" d="M87.3,112.3c0-3.9,0-7.7,0-11.6c-1.8,0-3.5,0-5.3,0c0-1.8,0-3.4,0-5.2c2.3,0.8,2.8-0.9,3.6-2.2
		c4.1-7,8.1-14,12.2-20.9c1-1.7,2.5-2.6,4.5-2.6c6.4,0,12.7,0,19.1,0c2,0,3.5,0.9,4.5,2.7c4.1,7,8.1,14,12.2,21
		c0.8,1.4,1.4,3,3.6,2.2c0,1.8,0,3.3,0,5.1c-1.7,0-3.4,0-5.2,0c0,4,0,7.8,0,11.8C120.1,112.3,103.8,112.3,87.3,112.3z M97.1,87.1
		c-0.1,0-0.2-0.1-0.3-0.1c-1.6,2.8-3.2,5.5-4.9,8.4c1.9,0,3.5,0,5.2,0C97.1,92.6,97.1,89.9,97.1,87.1z M131.9,95.5
		c-1.7-3-3.4-5.7-5.2-8.8c0,3.2,0,6,0,8.8C128.4,95.5,130,95.5,131.9,95.5z"/>
	<path class="st0" d="M30.1,153.9c0.6-5.9,5.8-11.8,11.6-13.4c6.4-1.7,11.2,0.8,17,8.6c3-5.3,7.1-9,13.5-9c6.3,0,10.5,3.6,13.6,9.1
		c3-5.3,7.1-9.1,13.5-9.1c6.4,0,10.6,3.7,13.6,9.1c3-5.3,7.1-9.1,13.5-9.1c6.4,0,10.6,3.6,13.6,9.1c3.9-6.6,9.1-10.5,17.1-8.6
		c5.8,1.4,10.4,6.9,11.5,13.3C122.5,153.9,76.4,153.9,30.1,153.9z"/>
	<path class="st0" d="M111.7,66.1c-6.6-0.1-11.8-5.4-11.7-12.1c0.1-6.4,5.5-11.6,12-11.6c6.5,0.1,11.7,5.5,11.7,12
		C123.7,60.9,118.3,66.1,111.7,66.1z"/>
	<path class="st0" d="M164,127.4c0,5.7-4.7,10.5-10.4,10.5c-5.8,0-10.3-4.6-10.4-10.3c-0.1-5.8,4.6-10.5,10.3-10.5
		C159.2,116.9,163.9,121.6,164,127.4z"/>
	<path class="st0" d="M45.2,137.8c-5.7,0-10.5-4.7-10.5-10.4c0-5.6,4.7-10.4,10.3-10.4c5.7,0,10.5,4.6,10.5,10.4
		C55.6,133.1,50.9,137.8,45.2,137.8z"/>
	<path class="st0" d="M82.6,127.4c0,5.8-4.7,10.4-10.5,10.4c-5.8,0-10.3-4.7-10.3-10.5c0-5.7,4.7-10.3,10.4-10.3
		C78,117,82.7,121.7,82.6,127.4z"/>
	<path class="st0" d="M136.8,127.4c0,5.8-4.7,10.4-10.5,10.4c-5.7,0-10.3-4.7-10.4-10.4c0-5.8,4.6-10.5,10.4-10.5
		C132.2,116.9,136.8,121.6,136.8,127.4z"/>
	<path class="st0" d="M99.1,137.8c-5.8-0.2-10.4-4.9-10.2-10.6c0.2-5.8,4.9-10.3,10.7-10.2c5.7,0.2,10.3,5,10.2,10.7
		C109.6,133.4,104.8,138,99.1,137.8z"/>
</g>
</svg>
