<svg id="Camada_1" data-name="Camada 1" xmlns="http://www.w3.org/2000/svg" viewBox="0 0 214.12 104.17"><title>nome-logo</title><path d="M15.39,9H28.13V111.68H15.39V9Z" transform="translate(-15.39 -8.95)" style="fill:#036"/><path d="M56.63,79c0.29,17.22,11.29,24.31,24,24.31,9.12,0,14.61-1.59,19.39-3.62l2.17,9.12c-4.49,2-12.15,4.34-23.29,4.34-21.56,0-34.43-14.18-34.43-35.3S56.92,40.06,77.32,40.06c22.86,0,28.94,20.11,28.94,33a48,48,0,0,1-.43,5.93H56.63ZM94,69.87c0.14-8.1-3.33-20.69-17.65-20.69C63.43,49.18,57.78,61,56.77,69.87H94Z" transform="translate(-15.39 -8.95)" style="fill:#036"/><path d="M122,63.5c0-8.25-.14-15.34-0.58-21.85h11.14L133,55.4h0.58C136.78,46,144.45,40.06,153,40.06a13.78,13.78,0,0,1,3.62.43v12a19.14,19.14,0,0,0-4.34-.43c-9,0-15.34,6.8-17.07,16.35a35.87,35.87,0,0,0-.58,5.93v37.33H122V63.5Z" transform="translate(-15.39 -8.95)" style="fill:#06c"/><path d="M169.91,60.61c0-7.23-.15-13.17-0.58-19h11.29l0.72,11.57h0.29c3.47-6.66,11.57-13.17,23.15-13.17,9.69,0,24.74,5.79,24.74,29.81v41.81H216.79V71.31c0-11.29-4.2-20.69-16.2-20.69-8.39,0-14.9,5.93-17.07,13a18.31,18.31,0,0,0-.87,5.93v42.1H169.91V60.61Z" transform="translate(-15.39 -8.95)" style="fill:#036"/></svg>