<?xml version="1.0" encoding="utf-8"?>
<!-- Generator: Adobe Illustrator 19.2.1, SVG Export Plug-In . SVG Version: 6.00 Build 0)  -->
<svg version="1.1" baseProfile="tiny" xmlns="http://www.w3.org/2000/svg" xmlns:xlink="http://www.w3.org/1999/xlink" x="0px"
	 y="0px" viewBox="0 0 53.7 100" xml:space="preserve">
<g id="Layer_2">
</g>
<g id="Layer_1">
	<g id="XMLID_29_">
		<g id="XMLID_302_">
			<path id="XMLID_312_" fill="#FFFFFF" d="M34,3.7h8.4c1,0,1.8-0.8,1.8-1.8l0,0c0-1-0.8-1.8-1.8-1.8H34c-1,0-1.8,0.8-1.8,1.8l0,0
				C32.1,2.9,32.9,3.7,34,3.7z"/>
			<path id="XMLID_311_" fill="#FFFFFF" d="M52.1,21.9L52.1,21.9c0.9,0,1.6-0.7,1.6-1.6v-4.6c0-0.9-0.7-1.6-1.6-1.6l0,0
				c-0.9,0-1.6,0.7-1.6,1.6v4.6C50.6,21.2,51.3,21.9,52.1,21.9z"/>
			<path id="XMLID_310_" fill="#FFFFFF" d="M52.1,31.4L52.1,31.4c0.9,0,1.6-0.7,1.6-1.6v-4.6c0-0.9-0.7-1.6-1.6-1.6l0,0
				c-0.9,0-1.6,0.7-1.6,1.6v4.6C50.6,30.7,51.3,31.4,52.1,31.4z"/>
			<path id="XMLID_309_" fill="#FFFFFF" d="M0.4,91c0,4.9,0,8.9,9.5,8.9h33.1c6.8,0,9.5-4,9.5-8.9V9.9c0-4.9,0-8.9-9.5-8.9H9.8
				C1.9,1,0.4,5,0.4,9.9V91z"/>
			<rect id="XMLID_308_" x="3.4" y="16.3" fill="#0033CC" width="45.3" height="68.5"/>
			<path id="XMLID_306_" fill="#262424" d="M19.3,8.5c0,0.7,0.5,1.2,1.1,1.2h14.6c0.6,0,1.1-0.6,1.1-1.2l0,0c0-0.7-0.5-1.2-1.1-1.2
				H20.4C19.8,7.3,19.3,7.9,19.3,8.5L19.3,8.5z"/>
			<ellipse id="XMLID_305_" fill="#FFF02D" cx="26.1" cy="91.5" rx="4" ry="4.4"/>
			<ellipse id="XMLID_304_" fill="#F0F1F1" cx="26.1" cy="91.5" rx="3.2" ry="3.5"/>
			<circle id="XMLID_303_" fill="#262424" cx="14.3" cy="8.5" r="1.2"/>
		</g>
	</g>
</g>
</svg>
